<svg id="Layer_1" data-name="Layer 1" xmlns="http://www.w3.org/2000/svg" viewBox="0 0 89 25"><defs><style>.cls-1{fill:#1d143e;}.cls-2{fill:#1e2656;}</style></defs><title>grp_full</title><rect class="cls-1" x="29.58" y="0.94" width="5.73" height="5.73"/><rect class="cls-2" x="29.58" y="9.45" width="5.73" height="5.73"/><rect class="cls-1" x="29.58" y="17.77" width="5.73" height="5.73"/><rect class="cls-2" x="21.8" y="17.77" width="5.73" height="5.73"/><rect class="cls-1" x="21.8" y="9.45" width="5.73" height="5.73"/><rect class="cls-2" x="14.02" y="9.45" width="5.73" height="5.73"/><path class="cls-1" d="M49.65,17.52a8,8,0,0,1-4.78,1.61,5.86,5.86,0,0,1-3.56-1,6.06,6.06,0,0,1-2-2.56A11.47,11.47,0,0,1,38.3,10.4a12.84,12.84,0,0,1,1.51-6.56A5.84,5.84,0,0,1,41.08,2.4a5.55,5.55,0,0,1,2.14-1,5.29,5.29,0,0,1,4,.52,5.48,5.48,0,0,1,2.39,4.21L46.41,7a2.28,2.28,0,0,0-1.33-2,1.91,1.91,0,0,0-1.23-.07c-.9.27-1.31,1.21-1.61,1.93a8.93,8.93,0,0,0-.5,4,6.28,6.28,0,0,0,.71,3.3,2.57,2.57,0,0,0,1.19,1.12,2.3,2.3,0,0,0,1.33.1,2.89,2.89,0,0,0,1.72-1.05V12.51l-2.28,0V8.89h5.3Z"/><path class="cls-1" d="M62.62,18.82h-3.4c-.48-1.47-.95-2.94-1.43-4.41-.15-.33-.3-.63-.44-.9a4.57,4.57,0,0,0-.43-.67,1.65,1.65,0,0,0-.45-.43.9.9,0,0,0-.51-.15h-.79v6.57l-3.28,0q0-8.67,0-17.34l5.23,0a4.7,4.7,0,0,1,3.46,1.39,4.93,4.93,0,0,1,1.14,3.45A6.18,6.18,0,0,1,61.47,8a5.15,5.15,0,0,1-.59,1.37A4.51,4.51,0,0,1,60,10.41a4.58,4.58,0,0,1-1.22.69v.05a1.71,1.71,0,0,1,.57.39,4.88,4.88,0,0,1,.53.63,8.42,8.42,0,0,1,.49.77c.16.28.3.55.43.81ZM55.17,4.55v4.2h1.49a1.56,1.56,0,0,0,.7-.07A1.8,1.8,0,0,0,58,8.29a2.14,2.14,0,0,0,.58-1.49A2.22,2.22,0,0,0,58,5a2.1,2.1,0,0,0-1.46-.47Z"/><path class="cls-1" d="M67.26,12.82l0,5.93H63.86V1.56H68.5q5,0,5,5.48A6,6,0,0,1,72,11.22a4.84,4.84,0,0,1-3.81,1.6Zm0-7.89V9.1l1.08,0a2,2,0,0,0,1-.39,2.14,2.14,0,0,0,.77-1.68,2.21,2.21,0,0,0-.7-1.72,2,2,0,0,0-1.13-.46Z"/><path class="cls-2" d="M40,23.35a1.25,1.25,0,0,1-.61.15.82.82,0,0,1-.86-.87.89.89,0,0,1,.92-.92,1.36,1.36,0,0,1,.49.08v.3a.81.81,0,0,0-.47-.13.62.62,0,0,0-.46.18.74.74,0,0,0,0,.94.5.5,0,0,0,.41.17.62.62,0,0,0,.31-.07v-.41h-.37v-.24H40Z"/><path class="cls-2" d="M40.88,23.5a.64.64,0,0,1-.46-.17.66.66,0,0,1,.49-1.13.61.61,0,0,1,.45.17.68.68,0,0,1,.16.48.6.6,0,0,1-.64.65Zm0-1.07a.35.35,0,0,0-.26.11.53.53,0,0,0-.09.32.5.5,0,0,0,.09.31.35.35,0,0,0,.26.11.33.33,0,0,0,.26-.11.48.48,0,0,0,.09-.31.49.49,0,0,0-.09-.32A.33.33,0,0,0,40.89,22.43Z"/><path class="cls-2" d="M42.88,22.23l-.48,1.24h-.31l-.45-1.24h.3l.28.87a1.36,1.36,0,0,1,0,.17h0l0-.17.29-.87Z"/><path class="cls-2" d="M44.1,22.93h-.85a.36.36,0,0,0,.39.36.6.6,0,0,0,.36-.12v.23a.83.83,0,0,1-.45.1.54.54,0,0,1-.43-.17.68.68,0,0,1-.15-.47.66.66,0,0,1,.17-.47.54.54,0,0,1,.43-.19.49.49,0,0,1,.39.17.69.69,0,0,1,.14.45Zm-.27-.2a.37.37,0,0,0-.07-.23.27.27,0,0,0-.4,0,.45.45,0,0,0-.11.23Z"/><path class="cls-2" d="M45.08,22.5a.2.2,0,0,0-.14,0,.26.26,0,0,0-.21.11.49.49,0,0,0-.08.31v.59h-.28V22.23h.28v.26h0a.44.44,0,0,1,.13-.21.32.32,0,0,1,.19-.07l.11,0Z"/><path class="cls-2" d="M46.39,23.47h-.28v-.7c0-.23-.09-.34-.25-.34a.26.26,0,0,0-.21.09.37.37,0,0,0-.09.25v.7h-.28V22.23h.28v.21h0a.44.44,0,0,1,.4-.24.37.37,0,0,1,.31.14.56.56,0,0,1,.11.37Z"/><path class="cls-2" d="M48.58,23.47H48.3V22.8a.6.6,0,0,0,0-.28.21.21,0,0,0-.19-.09.23.23,0,0,0-.19.11.44.44,0,0,0-.07.26v.67h-.28v-.7c0-.23-.09-.34-.25-.34a.22.22,0,0,0-.19.1.45.45,0,0,0-.07.27v.67h-.28V22.23H47v.2h0a.42.42,0,0,1,.39-.23.41.41,0,0,1,.22.07.36.36,0,0,1,.13.19.45.45,0,0,1,.41-.26c.28,0,.41.17.41.51Z"/><path class="cls-2" d="M50,22.93h-.84a.33.33,0,0,0,.11.26.35.35,0,0,0,.27.1.61.61,0,0,0,.37-.12v.23a.83.83,0,0,1-.45.1.53.53,0,0,1-.43-.17.68.68,0,0,1-.15-.47.62.62,0,0,1,.17-.47.52.52,0,0,1,.42-.19.51.51,0,0,1,.4.17.69.69,0,0,1,.13.45Zm-.27-.2a.32.32,0,0,0-.07-.23.22.22,0,0,0-.19-.09.29.29,0,0,0-.21.09.44.44,0,0,0-.1.23Z"/><path class="cls-2" d="M51.35,23.47h-.28v-.7c0-.23-.09-.34-.25-.34a.26.26,0,0,0-.21.09.37.37,0,0,0-.09.25v.7h-.28V22.23h.28v.21h0a.44.44,0,0,1,.4-.24.37.37,0,0,1,.31.14.56.56,0,0,1,.11.37Z"/><path class="cls-2" d="M52.34,23.46a.41.41,0,0,1-.21,0c-.24,0-.36-.11-.36-.35v-.7h-.21v-.22h.21V22l.28-.08v.36h.29v.22h-.29v.62a.22.22,0,0,0,0,.16.16.16,0,0,0,.13.05.21.21,0,0,0,.12,0Z"/><path class="cls-2" d="M54.64,23.47H54.3L54,23A1,1,0,0,0,54,22.9l-.07-.08-.08,0h-.22v.7H53.3V21.74h.57a.73.73,0,0,1,.22,0,.49.49,0,0,1,.18.08.44.44,0,0,1,.12.15.46.46,0,0,1,0,.21.41.41,0,0,1,0,.16.47.47,0,0,1-.08.14.29.29,0,0,1-.12.1l-.16.07h0l.08.06.07.07.06.08.07.09ZM53.58,22v.56h.24a.27.27,0,0,0,.13,0,.18.18,0,0,0,.09-.06.22.22,0,0,0,.07-.09.5.5,0,0,0,0-.12.23.23,0,0,0-.08-.2.29.29,0,0,0-.22-.07Z"/><path class="cls-2" d="M55.79,22.93H55a.33.33,0,0,0,.11.26.35.35,0,0,0,.27.1.61.61,0,0,0,.37-.12v.23a.86.86,0,0,1-.45.1.53.53,0,0,1-.43-.17.68.68,0,0,1-.16-.47.63.63,0,0,1,.18-.47.52.52,0,0,1,.42-.19.48.48,0,0,1,.39.17.64.64,0,0,1,.14.45Zm-.27-.2a.32.32,0,0,0-.07-.23.23.23,0,0,0-.19-.09.29.29,0,0,0-.21.09.44.44,0,0,0-.1.23Z"/><path class="cls-2" d="M56,23.43v-.26a.57.57,0,0,0,.35.12c.17,0,.26-.05.26-.15a.11.11,0,0,0,0-.07.12.12,0,0,0-.05-.05l-.09,0-.11,0-.14-.07-.1-.07a.27.27,0,0,1-.06-.1.27.27,0,0,1,0-.13.29.29,0,0,1,0-.16.38.38,0,0,1,.11-.11.46.46,0,0,1,.16-.07.63.63,0,0,1,.19,0,.75.75,0,0,1,.31.06v.24a.53.53,0,0,0-.3-.09h-.1l-.07,0s0,0,0,.05a.13.13,0,0,0,0,.06.15.15,0,0,0,0,.07s0,0,0,.05l.08,0,.11,0,.14.07a.31.31,0,0,1,.11.08.36.36,0,0,1,.07.1.25.25,0,0,1,0,.13.27.27,0,0,1,0,.16.34.34,0,0,1-.12.12.59.59,0,0,1-.16.07l-.2,0A.8.8,0,0,1,56,23.43Z"/><path class="cls-2" d="M57.68,23.5a.65.65,0,1,1,0-1.3.6.6,0,0,1,.45.17.69.69,0,0,1,.17.48.62.62,0,0,1-.65.65Zm0-1.07a.35.35,0,0,0-.26.11.53.53,0,0,0-.09.32.5.5,0,0,0,.09.31.36.36,0,0,0,.26.11.33.33,0,0,0,.26-.11.48.48,0,0,0,.09-.31.49.49,0,0,0-.09-.32A.33.33,0,0,0,57.69,22.43Z"/><path class="cls-2" d="M59.69,23.47h-.28v-.19h0a.4.4,0,0,1-.38.22c-.3,0-.44-.17-.44-.53v-.74h.28V23c0,.22.08.33.26.33a.25.25,0,0,0,.2-.09.36.36,0,0,0,.08-.24v-.72h.28Z"/><path class="cls-2" d="M60.78,22.5a.24.24,0,0,0-.15,0,.28.28,0,0,0-.21.11.57.57,0,0,0-.08.31v.59h-.28V22.23h.28v.26h0a.44.44,0,0,1,.13-.21.34.34,0,0,1,.19-.07l.12,0Z"/><path class="cls-2" d="M61.84,23.42a.78.78,0,0,1-.35.08.58.58,0,0,1-.62-.62.64.64,0,0,1,.19-.49.66.66,0,0,1,.48-.19.67.67,0,0,1,.3.06v.26a.46.46,0,0,0-.27-.09.41.41,0,0,0-.3.12.49.49,0,0,0,0,.62.4.4,0,0,0,.29.11.45.45,0,0,0,.28-.11Z"/><path class="cls-2" d="M63.17,22.93h-.85a.36.36,0,0,0,.39.36.6.6,0,0,0,.36-.12v.23a.83.83,0,0,1-.45.1.51.51,0,0,1-.42-.17.64.64,0,0,1-.16-.47.66.66,0,0,1,.17-.47.56.56,0,0,1,.43-.19.48.48,0,0,1,.39.17.69.69,0,0,1,.14.45Zm-.27-.2a.37.37,0,0,0-.07-.23.24.24,0,0,0-.2-.09.25.25,0,0,0-.2.09.45.45,0,0,0-.11.23Z"/><path class="cls-2" d="M64.44,22.84v.63h-.29V21.74h.53a.65.65,0,0,1,.46.14.47.47,0,0,1,.16.39.5.5,0,0,1-.17.41.63.63,0,0,1-.46.16Zm0-.87v.64h.18a.42.42,0,0,0,.29-.09.31.31,0,0,0,.09-.24c0-.2-.12-.31-.35-.31Z"/><path class="cls-2" d="M65.85,23.47h-.28V21.64h.28Z"/><path class="cls-2" d="M67.17,23.47h-.28v-.19h0a.41.41,0,0,1-.38.22.37.37,0,0,1-.28-.1.33.33,0,0,1-.11-.26c0-.23.14-.37.41-.41l.36-.05c0-.18-.08-.27-.25-.27a.58.58,0,0,0-.4.16v-.25a.88.88,0,0,1,.46-.12.42.42,0,0,1,.47.47Zm-.28-.61-.26,0a.38.38,0,0,0-.18.06.18.18,0,0,0-.06.15.16.16,0,0,0,.06.13.25.25,0,0,0,.15.05.29.29,0,0,0,.21-.09.31.31,0,0,0,.08-.23Z"/><path class="cls-2" d="M68.61,23.47h-.28v-.7c0-.23-.08-.34-.24-.34a.29.29,0,0,0-.22.09.41.41,0,0,0-.08.25v.7h-.28V22.23h.28v.21h0a.43.43,0,0,1,.4-.24.38.38,0,0,1,.31.14.56.56,0,0,1,.1.37Z"/><path class="cls-2" d="M70.06,23.47h-.28v-.7c0-.23-.08-.34-.25-.34a.29.29,0,0,0-.21.09.41.41,0,0,0-.08.25v.7H69V22.23h.28v.21h0a.45.45,0,0,1,.4-.24.37.37,0,0,1,.31.14.56.56,0,0,1,.11.37Z"/><path class="cls-2" d="M70.54,22a.15.15,0,0,1-.11,0,.13.13,0,0,1-.05-.12.13.13,0,0,1,.05-.11.16.16,0,0,1,.11-.05.17.17,0,0,1,.12.05.13.13,0,0,1,0,.11.13.13,0,0,1,0,.12A.16.16,0,0,1,70.54,22Zm.14,1.5H70.4V22.23h.28Z"/><path class="cls-2" d="M72.15,23.47h-.28v-.7c0-.23-.08-.34-.24-.34a.26.26,0,0,0-.21.09.37.37,0,0,0-.09.25v.7h-.28V22.23h.28v.21h0a.43.43,0,0,1,.4-.24.38.38,0,0,1,.31.14.56.56,0,0,1,.1.37Z"/><path class="cls-2" d="M73.62,23.37a.6.6,0,0,1-.68.69,1.08,1.08,0,0,1-.42-.08v-.26a.72.72,0,0,0,.38.11c.3,0,.44-.14.44-.43v-.14h0a.45.45,0,0,1-.42.24.44.44,0,0,1-.36-.16.64.64,0,0,1-.14-.45.76.76,0,0,1,.15-.5.5.5,0,0,1,.4-.19.39.39,0,0,1,.37.21h0v-.18h.28Zm-.27-.47v-.16a.31.31,0,0,0-.09-.22.29.29,0,0,0-.22-.09.3.3,0,0,0-.25.12.5.5,0,0,0-.09.33.44.44,0,0,0,.09.29.28.28,0,0,0,.23.11.3.3,0,0,0,.24-.11A.4.4,0,0,0,73.35,22.9Z"/></svg>