<?xml version="1.0" encoding="utf-8"?>
<!-- Generator: Adobe Illustrator 24.0.1, SVG Export Plug-In . SVG Version: 6.00 Build 0)  -->
<svg version="1.1" id="Layer_1" xmlns="http://www.w3.org/2000/svg" xmlns:xlink="http://www.w3.org/1999/xlink" x="0px" y="0px"
	 viewBox="0 0 89 25" style="enable-background:new 0 0 89 25;" xml:space="preserve">
<style type="text/css">
	.st0{fill:#1687C8;}
	.st1{fill:#18B1D0;}
	.st2{fill:#FFFFFF;}
</style>
<rect x="29.6" y="0.9" class="st0" width="5.7" height="5.7"/>
<rect x="29.6" y="9.4" class="st1" width="5.7" height="5.7"/>
<rect x="29.6" y="17.8" class="st0" width="5.7" height="5.7"/>
<rect x="21.8" y="17.8" class="st1" width="5.7" height="5.7"/>
<rect x="21.8" y="9.4" class="st0" width="5.7" height="5.7"/>
<rect x="14" y="9.4" class="st1" width="5.7" height="5.7"/>
<path class="st2" d="M49.7,17.5c-1.4,1-3.1,1.6-4.8,1.6c-1.3,0.1-2.5-0.3-3.6-1c-0.9-0.7-1.6-1.5-2-2.6c-0.7-1.6-1.1-3.4-1-5.2
	c-0.1-2.3,0.4-4.5,1.5-6.6c0.3-0.5,0.8-1,1.3-1.4c0.6-0.5,1.4-0.8,2.1-1c1.3-0.4,2.8-0.2,4,0.5c1.4,1,2.3,2.5,2.4,4.2L46.4,7
	c0-0.9-0.5-1.6-1.3-2c-0.4-0.2-0.8-0.2-1.2-0.1c-0.9,0.3-1.3,1.2-1.6,1.9c-0.5,1.3-0.6,2.6-0.5,4c-0.1,1.1,0.2,2.3,0.7,3.3
	c0.3,0.5,0.7,0.9,1.2,1.1c0.4,0.2,0.9,0.2,1.3,0.1c0.7-0.1,1.3-0.5,1.7-1.1v-1.8h-2.3V8.9h5.3L49.7,17.5z"/>
<path class="st2" d="M62.6,18.8h-3.4c-0.5-1.5-1-2.9-1.4-4.4c-0.2-0.3-0.3-0.6-0.4-0.9c-0.1-0.2-0.3-0.5-0.4-0.7
	c-0.1-0.2-0.3-0.3-0.5-0.4c-0.2-0.1-0.3-0.2-0.5-0.1h-0.8v6.6h-3.3c0-5.8,0-11.6,0-17.3h5.2c1.3,0,2.5,0.5,3.5,1.4
	c0.8,1,1.2,2.2,1.1,3.5c0,0.6-0.1,1.1-0.2,1.7c-0.1,0.5-0.3,0.9-0.6,1.4c-0.2,0.4-0.5,0.7-0.9,1c-0.4,0.3-0.8,0.5-1.2,0.7v0.1
	c0.2,0.1,0.4,0.2,0.6,0.4c0.2,0.2,0.4,0.4,0.5,0.6c0.2,0.2,0.3,0.5,0.5,0.8c0.2,0.3,0.3,0.6,0.4,0.8L62.6,18.8z M55.2,4.6v4.2h1.5
	c0.2,0,0.5,0,0.7-0.1c0.2-0.1,0.5-0.2,0.6-0.4c0.4-0.4,0.6-0.9,0.6-1.5C58.7,6.1,58.5,5.5,58,5c-0.4-0.3-0.9-0.5-1.5-0.5L55.2,4.6z"
	/>
<path class="st2" d="M67.3,12.8v5.9h-3.4V1.6h4.6c3.3,0,5,1.8,5,5.5c0.1,1.5-0.5,3-1.5,4.2c-1,1.1-2.4,1.7-3.8,1.6L67.3,12.8z
	 M67.3,4.9v4.2h1.1c0.4,0,0.7-0.2,1-0.4c0.5-0.4,0.8-1,0.8-1.7c0-0.6-0.2-1.3-0.7-1.7c-0.3-0.3-0.7-0.4-1.1-0.5L67.3,4.9z"/>
<path class="st1" d="M40,23.4c-0.2,0.1-0.4,0.2-0.6,0.1c-0.5,0-0.8-0.3-0.9-0.8c0,0,0-0.1,0-0.1c0-0.5,0.4-0.9,0.9-0.9
	c0,0,0,0,0.1,0c0.2,0,0.3,0,0.5,0.1v0.3C39.8,22,39.6,22,39.5,22c-0.2,0-0.3,0.1-0.5,0.2c-0.2,0.3-0.2,0.7,0,0.9
	c0.1,0.1,0.3,0.2,0.4,0.2c0.1,0,0.2,0,0.3-0.1v-0.4h-0.4v-0.2H40V23.4z"/>
<path class="st1" d="M40.9,23.5c-0.2,0-0.3-0.1-0.5-0.2c-0.3-0.3-0.3-0.7,0-0.9c0.1-0.1,0.3-0.2,0.5-0.2c0.2,0,0.3,0.1,0.5,0.2
	c0.1,0.1,0.2,0.3,0.2,0.5C41.5,23.2,41.3,23.5,40.9,23.5C40.9,23.5,40.9,23.5,40.9,23.5z M40.9,22.4c-0.1,0-0.2,0-0.3,0.1
	c-0.1,0.1-0.1,0.2-0.1,0.3c0,0.1,0,0.2,0.1,0.3c0.1,0.1,0.2,0.1,0.3,0.1c0.1,0,0.2,0,0.3-0.1c0.1-0.1,0.1-0.2,0.1-0.3
	c0-0.1,0-0.2-0.1-0.3C41.1,22.5,41,22.4,40.9,22.4L40.9,22.4z"/>
<path class="st1" d="M42.9,22.2l-0.5,1.2h-0.3l-0.5-1.2h0.3l0.3,0.9c0,0.1,0,0.1,0,0.2l0,0v-0.2l0.3-0.9H42.9z"/>
<path class="st1" d="M44.1,22.9h-0.8c0,0.2,0.2,0.4,0.4,0.4c0,0,0,0,0,0c0.1,0,0.3,0,0.4-0.1v0.2c-0.1,0.1-0.3,0.1-0.5,0.1
	c-0.2,0-0.3-0.1-0.4-0.2C43,23.2,43,23,43,22.9c0-0.2,0.1-0.3,0.2-0.5c0.1-0.1,0.3-0.2,0.4-0.2c0.1,0,0.3,0.1,0.4,0.2
	c0.1,0.1,0.1,0.3,0.1,0.5L44.1,22.9z M43.8,22.7c0-0.1,0-0.2-0.1-0.2c-0.1-0.1-0.3-0.1-0.4,0c0,0,0,0,0,0c-0.1,0.1-0.1,0.1-0.1,0.2
	H43.8z"/>
<path class="st1" d="M45.1,22.5c0,0-0.1,0-0.1,0c-0.1,0-0.2,0-0.2,0.1c-0.1,0.1-0.1,0.2-0.1,0.3v0.6h-0.3v-1.3h0.3v0.3l0,0
	c0-0.1,0.1-0.2,0.1-0.2c0.1,0,0.1-0.1,0.2-0.1h0.1V22.5z"/>
<path class="st1" d="M46.4,23.5h-0.3v-0.7c0-0.2-0.1-0.3-0.3-0.3c-0.1,0-0.2,0-0.2,0.1c-0.1,0.1-0.1,0.2-0.1,0.3v0.7h-0.3v-1.2h0.3
	v0.2l0,0c0.1-0.1,0.2-0.2,0.4-0.2c0.1,0,0.2,0,0.3,0.1c0.1,0.1,0.1,0.2,0.1,0.4L46.4,23.5z"/>
<path class="st1" d="M48.6,23.5h-0.3v-0.7c0-0.1,0-0.2,0-0.3c0-0.1-0.1-0.1-0.2-0.1c-0.1,0-0.1,0-0.2,0.1c0,0.1-0.1,0.2-0.1,0.3v0.7
	h-0.3v-0.7c0-0.2-0.1-0.3-0.3-0.3c-0.1,0-0.1,0-0.2,0.1c-0.1,0.1-0.1,0.2-0.1,0.3v0.7h-0.3v-1.2H47v0.2l0,0c0.1-0.1,0.2-0.2,0.4-0.2
	c0.1,0,0.2,0,0.2,0.1c0.1,0,0.1,0.1,0.1,0.2c0.1-0.2,0.2-0.3,0.4-0.3c0.3,0,0.4,0.2,0.4,0.5L48.6,23.5z"/>
<path class="st1" d="M50,22.9h-0.8c0,0.1,0,0.2,0.1,0.3c0.1,0.1,0.2,0.1,0.3,0.1c0.1,0,0.3,0,0.4-0.1v0.2c-0.1,0.1-0.3,0.1-0.5,0.1
	c-0.2,0-0.3-0.1-0.4-0.2c-0.1-0.1-0.2-0.3-0.2-0.5c0-0.2,0-0.3,0.2-0.5c0.1-0.1,0.3-0.2,0.4-0.2c0.2,0,0.3,0.1,0.4,0.2
	c0.1,0.1,0.1,0.3,0.1,0.5L50,22.9z M49.7,22.7c0-0.1,0-0.2-0.1-0.2c0-0.1-0.1-0.1-0.2-0.1c-0.1,0-0.2,0-0.2,0.1
	c-0.1,0.1-0.1,0.1-0.1,0.2H49.7z"/>
<path class="st1" d="M51.3,23.5h-0.3v-0.7c0-0.2-0.1-0.3-0.3-0.3c-0.1,0-0.2,0-0.2,0.1c-0.1,0.1-0.1,0.2-0.1,0.3v0.7h-0.3v-1.2h0.3
	v0.2l0,0c0.1-0.1,0.2-0.2,0.4-0.2c0.1,0,0.2,0,0.3,0.1c0.1,0.1,0.1,0.2,0.1,0.4L51.3,23.5z"/>
<path class="st1" d="M52.3,23.5c-0.1,0-0.1,0-0.2,0c-0.2,0-0.4-0.1-0.4-0.4v-0.7h-0.2v-0.2h0.2V22l0.3-0.1v0.4h0.3v0.2H52v0.6
	c0,0.1,0,0.1,0,0.2c0,0,0.1,0.1,0.1,0c0,0,0.1,0,0.1,0L52.3,23.5z"/>
<path class="st1" d="M54.6,23.5h-0.3L54,23c0,0,0-0.1,0-0.1l-0.1-0.1h-0.1h-0.2v0.7h-0.3v-1.8h0.6c0.1,0,0.1,0,0.2,0
	c0.1,0,0.1,0,0.2,0.1c0.1,0,0.1,0.1,0.1,0.1c0,0.1,0,0.1,0,0.2c0,0.1,0,0.1,0,0.2c0,0.1,0,0.1-0.1,0.1c0,0-0.1,0.1-0.1,0.1L54,22.6
	l0,0l0.1,0.1l0.1,0.1l0.1,0.1l0.1,0.1L54.6,23.5z M53.6,22v0.6h0.2c0,0,0.1,0,0.1,0c0,0,0.1,0,0.1-0.1c0,0,0.1-0.1,0.1-0.1
	c0,0,0-0.1,0-0.1c0-0.1,0-0.2-0.1-0.2C54,22,53.9,22,53.8,22L53.6,22z"/>
<path class="st1" d="M55.8,22.9H55c0,0.1,0,0.2,0.1,0.3c0.1,0.1,0.2,0.1,0.3,0.1c0.1,0,0.3,0,0.4-0.1v0.2c-0.1,0.1-0.3,0.1-0.5,0.1
	c-0.2,0-0.3-0.1-0.4-0.2c-0.1-0.1-0.2-0.3-0.2-0.5c0-0.2,0.1-0.3,0.2-0.5c0.1-0.1,0.3-0.2,0.4-0.2c0.1,0,0.3,0.1,0.4,0.2
	c0.1,0.1,0.2,0.3,0.1,0.5L55.8,22.9z M55.5,22.7c0-0.1,0-0.2-0.1-0.2c0-0.1-0.1-0.1-0.2-0.1c-0.1,0-0.2,0-0.2,0.1
	C55,22.6,55,22.6,55,22.7H55.5z"/>
<path class="st1" d="M56,23.4v-0.3c0.1,0.1,0.2,0.1,0.3,0.1c0.2,0,0.3,0,0.3-0.1c0,0,0,0,0-0.1c0,0,0,0,0,0h-0.1h-0.1L56.2,23
	l-0.1-0.1c0,0,0-0.1-0.1-0.1c0,0,0-0.1,0-0.1c0-0.1,0-0.1,0-0.2c0,0,0.1-0.1,0.1-0.1c0,0,0.1-0.1,0.2-0.1c0.1,0,0.1,0,0.2,0
	c0.1,0,0.2,0,0.3,0.1v0.2c-0.1-0.1-0.2-0.1-0.3-0.1h-0.1h-0.1c0,0,0,0,0,0c0,0,0,0,0,0.1c0,0,0,0,0,0.1c0,0,0,0,0,0h0.1h0.1l0.1,0.1
	c0,0,0.1,0,0.1,0.1c0,0,0.1,0.1,0.1,0.1c0,0,0,0.1,0,0.1c0,0.1,0,0.1,0,0.2c0,0-0.1,0.1-0.1,0.1c0,0-0.1,0.1-0.2,0.1h-0.2
	C56.3,23.5,56.1,23.5,56,23.4z"/>
<path class="st1" d="M57.7,23.5c-0.4,0-0.7-0.3-0.7-0.6c0-0.4,0.3-0.7,0.6-0.7c0,0,0,0,0,0c0.2,0,0.3,0.1,0.5,0.2
	c0.1,0.1,0.2,0.3,0.2,0.5C58.3,23.2,58.1,23.5,57.7,23.5C57.7,23.5,57.7,23.5,57.7,23.5L57.7,23.5z M57.7,22.4c-0.1,0-0.2,0-0.3,0.1
	c-0.1,0.1-0.1,0.2-0.1,0.3c0,0.1,0,0.2,0.1,0.3c0.1,0.1,0.2,0.1,0.3,0.1c0.1,0,0.2,0,0.3-0.1C58,23.1,58,23,58,22.9
	c0-0.1,0-0.2-0.1-0.3C57.9,22.5,57.8,22.4,57.7,22.4L57.7,22.4z"/>
<path class="st1" d="M59.7,23.5h-0.3v-0.2l0,0c-0.1,0.1-0.2,0.2-0.4,0.2c-0.3,0-0.4-0.2-0.4-0.5v-0.7h0.3V23c0,0.2,0.1,0.3,0.3,0.3
	c0.1,0,0.2,0,0.2-0.1c0.1-0.1,0.1-0.2,0.1-0.2v-0.7h0.3V23.5z"/>
<path class="st1" d="M60.8,22.5c0,0-0.1,0-0.2,0c-0.1,0-0.2,0-0.2,0.1c-0.1,0.1-0.1,0.2-0.1,0.3v0.6h-0.3v-1.3h0.3v0.3l0,0
	c0-0.1,0.1-0.2,0.1-0.2c0.1,0,0.1-0.1,0.2-0.1h0.1L60.8,22.5z"/>
<path class="st1" d="M61.8,23.4c-0.1,0.1-0.2,0.1-0.3,0.1c-0.3,0-0.6-0.2-0.6-0.5c0,0,0-0.1,0-0.1c0-0.2,0.1-0.4,0.2-0.5
	c0.1-0.1,0.3-0.2,0.5-0.2c0.1,0,0.2,0,0.3,0.1v0.3c-0.1-0.1-0.2-0.1-0.3-0.1c-0.1,0-0.2,0-0.3,0.1c-0.1,0.2-0.1,0.4,0,0.6
	c0.1,0.1,0.2,0.1,0.3,0.1c0.1,0,0.2,0,0.3-0.1V23.4z"/>
<path class="st1" d="M63.2,22.9h-0.8c0,0.2,0.2,0.4,0.4,0.4c0,0,0,0,0,0c0.1,0,0.3,0,0.4-0.1v0.2c-0.1,0.1-0.3,0.1-0.5,0.1
	c-0.2,0-0.3-0.1-0.4-0.2C62.1,23.2,62,23,62,22.9c0-0.2,0.1-0.3,0.2-0.5c0.1-0.1,0.3-0.2,0.4-0.2c0.1,0,0.3,0.1,0.4,0.2
	c0.1,0.1,0.1,0.3,0.1,0.5V22.9z M62.9,22.7c0-0.1,0-0.2-0.1-0.2c0-0.1-0.1-0.1-0.2-0.1c-0.1,0-0.2,0-0.2,0.1
	c-0.1,0.1-0.1,0.1-0.1,0.2H62.9z"/>
<path class="st1" d="M64.4,22.8v0.6h-0.3v-1.7h0.5c0.2,0,0.3,0,0.5,0.1c0.1,0.1,0.2,0.2,0.2,0.4c0,0.2-0.1,0.3-0.2,0.4
	c-0.1,0.1-0.3,0.2-0.5,0.2L64.4,22.8z M64.4,22v0.6h0.2c0.1,0,0.2,0,0.3-0.1c0.1-0.1,0.1-0.2,0.1-0.2c0-0.2-0.1-0.3-0.3-0.3H64.4z"
	/>
<path class="st1" d="M65.8,23.5h-0.3v-1.8h0.3V23.5z"/>
<path class="st1" d="M67.2,23.5h-0.3v-0.2l0,0c-0.1,0.1-0.2,0.2-0.4,0.2c-0.1,0-0.2,0-0.3-0.1c-0.1-0.1-0.1-0.2-0.1-0.3
	c0-0.2,0.1-0.4,0.4-0.4l0.4,0c0-0.2-0.1-0.3-0.3-0.3c-0.1,0-0.3,0.1-0.4,0.2v-0.3c0.1-0.1,0.3-0.1,0.5-0.1c0.2,0,0.4,0.1,0.5,0.4
	c0,0,0,0.1,0,0.1L67.2,23.5z M66.9,22.9h-0.3c-0.1,0-0.1,0-0.2,0.1c0,0-0.1,0.1-0.1,0.1c0,0.1,0,0.1,0.1,0.1c0,0,0.1,0,0.2,0
	c0.1,0,0.2,0,0.2-0.1C66.9,23.1,66.9,23,66.9,22.9L66.9,22.9z"/>
<path class="st1" d="M68.6,23.5h-0.3v-0.7c0-0.2-0.1-0.3-0.2-0.3c-0.1,0-0.2,0-0.2,0.1c-0.1,0.1-0.1,0.2-0.1,0.3v0.7h-0.3v-1.2h0.3
	v0.2l0,0c0.1-0.2,0.2-0.2,0.4-0.2c0.1,0,0.2,0,0.3,0.1c0.1,0.1,0.1,0.2,0.1,0.4L68.6,23.5z"/>
<path class="st1" d="M70.1,23.5h-0.3v-0.7c0-0.2-0.1-0.3-0.3-0.3c-0.1,0-0.2,0-0.2,0.1c-0.1,0.1-0.1,0.2-0.1,0.3v0.7H69v-1.2h0.3
	v0.2l0,0c0.1-0.1,0.2-0.2,0.4-0.2c0.1,0,0.2,0,0.3,0.1c0.1,0.1,0.1,0.2,0.1,0.4L70.1,23.5z"/>
<path class="st1" d="M70.5,22c0,0-0.1,0-0.1,0c0,0-0.1-0.1-0.1-0.1c0,0,0-0.1,0.1-0.1c0,0,0.1,0,0.1,0c0,0,0.1,0,0.1,0
	c0,0,0,0.1,0,0.1c0,0,0,0.1,0,0.1C70.6,22,70.6,22,70.5,22z M70.7,23.5h-0.3v-1.3h0.3V23.5z"/>
<path class="st1" d="M72.2,23.5h-0.3v-0.7c0-0.2-0.1-0.3-0.2-0.3c-0.1,0-0.2,0-0.2,0.1c-0.1,0.1-0.1,0.2-0.1,0.3v0.7h-0.3v-1.2h0.3
	v0.2l0,0c0.1-0.2,0.2-0.2,0.4-0.2c0.1,0,0.2,0,0.3,0.1c0.1,0.1,0.1,0.2,0.1,0.4L72.2,23.5z"/>
<path class="st1" d="M73.6,23.4c0.1,0.3-0.2,0.6-0.5,0.7c-0.1,0-0.1,0-0.2,0c-0.1,0-0.3,0-0.4-0.1v-0.3c0.1,0.1,0.2,0.1,0.4,0.1
	c0.3,0,0.4-0.1,0.4-0.4v-0.1l0,0c-0.1,0.2-0.2,0.2-0.4,0.2c-0.1,0-0.3-0.1-0.4-0.2c-0.1-0.1-0.2-0.3-0.1-0.5c0-0.2,0-0.4,0.2-0.5
	c0.1-0.1,0.2-0.2,0.4-0.2c0.2,0,0.3,0.1,0.4,0.2l0,0v-0.2h0.3L73.6,23.4z M73.4,22.9v-0.2c0-0.1,0-0.2-0.1-0.2
	c-0.1-0.1-0.1-0.1-0.2-0.1c-0.1,0-0.2,0-0.3,0.1c-0.1,0.1-0.1,0.2-0.1,0.3c0,0.1,0,0.2,0.1,0.3c0.1,0.1,0.1,0.1,0.2,0.1
	c0.1,0,0.2,0,0.2-0.1C73.3,23.1,73.4,23,73.4,22.9z"/>
</svg>
