<svg id="Layer_1" data-name="Layer 1" xmlns="http://www.w3.org/2000/svg" viewBox="0 0 128 128"><defs><style>.cls-1{fill:#1d143e;}.cls-2{fill:#1e2656;}</style></defs><title>grp_text</title><path class="cls-1" d="M43.63,77.81A28.09,28.09,0,0,1,27,83.42c-2.52,0-7.62-.06-12.4-3.45-3.73-2.64-5.4-6-6.83-8.92-3.4-7-3.56-13.32-3.63-18.06C4,48.61,4.37,37.93,9.35,30.12a20.4,20.4,0,0,1,4.41-5,19.48,19.48,0,0,1,7.45-3.67c1.37-.33,7.83-1.9,13.94,1.84C42.86,28,43.43,37.13,43.47,38L32.34,41a8,8,0,0,0-4.64-7,6.65,6.65,0,0,0-4.28-.24c-3.15.93-4.57,4.21-5.63,6.72-1.94,4.62-1.86,8.55-1.71,14.06.2,7.27,1.54,10,2.44,11.5A9,9,0,0,0,22.68,70a8.24,8.24,0,0,0,4.65.37,10.19,10.19,0,0,0,6-3.67V60.33l-7.94.12V47.74H43.83Q43.72,62.77,43.63,77.81Z"/><path class="cls-1" d="M88.83,82.34H77L72,67c-.54-1.17-1-2.21-1.54-3.13A17.61,17.61,0,0,0,69,61.48,6.45,6.45,0,0,0,67.39,60a3.18,3.18,0,0,0-1.77-.52H62.84V82.37l-11.43.09-.12-60.41,18.22-.13c1.11,0,7.57-.07,12.07,4.85,3.84,4.2,4,9.49,4,12a21.63,21.63,0,0,1-.73,5.78,18.09,18.09,0,0,1-2.08,4.77A15.28,15.28,0,0,1,79.5,53a15.55,15.55,0,0,1-4.23,2.42v.16a6.39,6.39,0,0,1,2,1.36,17.3,17.3,0,0,1,1.85,2.19c.59.83,1.16,1.73,1.71,2.69s1,1.9,1.48,2.82Zm-26-49.73V47.24H68A5.73,5.73,0,0,0,70.49,47a6.29,6.29,0,0,0,2.2-1.35,7.53,7.53,0,0,0,2-5.19c0-1.18.14-4.15-2.13-6.22a7.18,7.18,0,0,0-5-1.63Z"/><path class="cls-1" d="M105,61.44q-.06,10.32-.13,20.65l-11.7,0V22.19H109.3q17.31,0,17.31,19.08,0,9-5,14.59t-13.27,5.58Zm0-27.52V48.47l3.79.12a6.91,6.91,0,0,0,3.42-1.34,7.62,7.62,0,0,0,2.69-5.87,7.58,7.58,0,0,0-2.45-6,7,7,0,0,0-3.91-1.59Q106.74,33.85,105,33.92Z"/><path class="cls-2" d="M10,98.12a4.25,4.25,0,0,1-2.1.52,2.9,2.9,0,0,1-2.17-.84,3,3,0,0,1-.83-2.21,3.12,3.12,0,0,1,.9-2.3,3.16,3.16,0,0,1,2.31-.9,4.43,4.43,0,0,1,1.7.29v1a2.94,2.94,0,0,0-1.66-.47,2.09,2.09,0,0,0-1.58.64,2.26,2.26,0,0,0-.62,1.65,2.41,2.41,0,0,0,.53,1.64,1.84,1.84,0,0,0,1.44.59A2.27,2.27,0,0,0,9,97.53V96.09H7.68v-.84H10Z"/><path class="cls-2" d="M13.06,98.64A2.1,2.1,0,0,1,11.47,98a2.17,2.17,0,0,1-.6-1.6,2.13,2.13,0,0,1,2.3-2.31,2.07,2.07,0,0,1,1.57.59,2.3,2.3,0,0,1,.57,1.65A2.27,2.27,0,0,1,14.7,98,2.21,2.21,0,0,1,13.06,98.64Zm0-3.74a1.11,1.11,0,0,0-.91.4,1.68,1.68,0,0,0-.33,1.1,1.55,1.55,0,0,0,.34,1.07,1.23,1.23,0,0,0,1.79,0,2.09,2.09,0,0,0,0-2.19A1.08,1.08,0,0,0,13.11,94.9Z"/><path class="cls-2" d="M20,94.22l-1.67,4.32H17.3l-1.59-4.32h1.06l1,3a3.1,3.1,0,0,1,.13.58h0a4.06,4.06,0,0,1,.12-.57l1-3Z"/><path class="cls-2" d="M24.28,96.64h-3a1.28,1.28,0,0,0,.37.93,1.42,1.42,0,0,0,1,.32,2.18,2.18,0,0,0,1.27-.41v.79a3,3,0,0,1-1.56.37,1.94,1.94,0,0,1-1.5-.59,2.35,2.35,0,0,1-.54-1.66,2.29,2.29,0,0,1,.6-1.64,2,2,0,0,1,1.48-.63,1.7,1.7,0,0,1,1.37.57,2.37,2.37,0,0,1,.49,1.58Zm-1-.69a1.22,1.22,0,0,0-.25-.82.84.84,0,0,0-.67-.29,1,1,0,0,0-.72.31,1.45,1.45,0,0,0-.36.8Z"/><path class="cls-2" d="M27.71,95.15A.8.8,0,0,0,27.2,95a.86.86,0,0,0-.72.39,1.74,1.74,0,0,0-.29,1.07v2.07h-1V94.22h1v.89h0a1.5,1.5,0,0,1,.45-.71,1,1,0,0,1,.66-.26.83.83,0,0,1,.4.08Z"/><path class="cls-2" d="M32.25,98.54h-1V96.1c0-.8-.28-1.21-.85-1.21a.91.91,0,0,0-.74.34,1.24,1.24,0,0,0-.29.84v2.47h-1V94.22h1v.72h0a1.53,1.53,0,0,1,1.4-.82,1.31,1.31,0,0,1,1.07.45,2.07,2.07,0,0,1,.37,1.33Z"/><path class="cls-2" d="M39.9,98.54h-1V96.18a1.88,1.88,0,0,0-.19-1,.7.7,0,0,0-.64-.3.8.8,0,0,0-.66.38,1.63,1.63,0,0,0-.26.92v2.34h-1V96.1c0-.8-.28-1.2-.85-1.2a.77.77,0,0,0-.65.36,1.61,1.61,0,0,0-.26.94v2.34h-1V94.22h1v.68h0a1.5,1.5,0,0,1,1.36-.78,1.34,1.34,0,0,1,.79.24A1.24,1.24,0,0,1,37,95a1.55,1.55,0,0,1,1.44-.89c1,0,1.42.58,1.42,1.76Z"/><path class="cls-2" d="M44.75,96.64H41.81a1.24,1.24,0,0,0,.37.93,1.4,1.4,0,0,0,1,.32,2.18,2.18,0,0,0,1.27-.41v.79a3,3,0,0,1-1.56.37,1.94,1.94,0,0,1-1.5-.59,2.35,2.35,0,0,1-.54-1.66,2.29,2.29,0,0,1,.6-1.64,1.94,1.94,0,0,1,1.48-.63,1.7,1.7,0,0,1,1.37.57,2.37,2.37,0,0,1,.48,1.58ZM43.81,96a1.27,1.27,0,0,0-.25-.82.84.84,0,0,0-.67-.29.94.94,0,0,0-.72.31,1.32,1.32,0,0,0-.36.8Z"/><path class="cls-2" d="M49.53,98.54h-1V96.1c0-.8-.28-1.21-.85-1.21a.91.91,0,0,0-.74.34,1.24,1.24,0,0,0-.29.84v2.47h-1V94.22h1v.72h0a1.53,1.53,0,0,1,1.4-.82,1.31,1.31,0,0,1,1.07.45,2.07,2.07,0,0,1,.37,1.33Z"/><path class="cls-2" d="M53,98.49a1.62,1.62,0,0,1-.75.14q-1.26,0-1.26-1.2V95h-.72v-.77H51v-1l1-.28v1.28h1V95H52v2.16a.85.85,0,0,0,.14.54.57.57,0,0,0,.46.17.64.64,0,0,0,.43-.15Z"/><path class="cls-2" d="M61,98.54H59.83l-1-1.62a3.52,3.52,0,0,0-.26-.38,1.25,1.25,0,0,0-.25-.26.85.85,0,0,0-.28-.15,1.21,1.21,0,0,0-.34,0h-.41v2.46h-1V92.49h2a2.8,2.8,0,0,1,.79.1,1.81,1.81,0,0,1,.62.31,1.31,1.31,0,0,1,.42.51,1.58,1.58,0,0,1,.15.71,1.87,1.87,0,0,1-.1.59,1.42,1.42,0,0,1-.27.48,1.78,1.78,0,0,1-.42.35,1.93,1.93,0,0,1-.55.23v0a2,2,0,0,1,.28.2l.23.23a2,2,0,0,1,.22.27l.24.35ZM57.33,93.3v2h.84a1.42,1.42,0,0,0,.42-.07.89.89,0,0,0,.34-.21,1,1,0,0,0,.23-.33,1.18,1.18,0,0,0,.08-.43.84.84,0,0,0-.28-.68,1.1,1.1,0,0,0-.79-.25Z"/><path class="cls-2" d="M65,96.64h-3a1.32,1.32,0,0,0,.37.93,1.42,1.42,0,0,0,1,.32,2.16,2.16,0,0,0,1.27-.41v.79a3,3,0,0,1-1.56.37,1.94,1.94,0,0,1-1.49-.59,2.31,2.31,0,0,1-.55-1.66,2.29,2.29,0,0,1,.6-1.64,2,2,0,0,1,1.48-.63,1.7,1.7,0,0,1,1.37.57A2.32,2.32,0,0,1,65,96.27Zm-1-.69a1.22,1.22,0,0,0-.25-.82.83.83,0,0,0-.67-.29.92.92,0,0,0-.71.31,1.39,1.39,0,0,0-.37.8Z"/><path class="cls-2" d="M65.69,98.4v-.9a2,2,0,0,0,1.21.41c.59,0,.89-.17.89-.52a.41.41,0,0,0-.08-.25.7.7,0,0,0-.2-.18,1.28,1.28,0,0,0-.31-.15l-.39-.14-.48-.22a1.41,1.41,0,0,1-.35-.27,1,1,0,0,1-.21-.34,1.25,1.25,0,0,1-.08-.45,1,1,0,0,1,.15-.55,1.38,1.38,0,0,1,.4-.4,1.9,1.9,0,0,1,.56-.24,2.44,2.44,0,0,1,.66-.08,3,3,0,0,1,1.07.18v.85a1.86,1.86,0,0,0-1-.31,1.66,1.66,0,0,0-.33,0,.89.89,0,0,0-.26.11.41.41,0,0,0-.16.16.37.37,0,0,0-.06.21.41.41,0,0,0,.06.23.55.55,0,0,0,.17.17,1.46,1.46,0,0,0,.28.14l.37.13a4.82,4.82,0,0,1,.5.23,1.61,1.61,0,0,1,.38.27.92.92,0,0,1,.24.35,1.08,1.08,0,0,1,.09.46,1.11,1.11,0,0,1-.15.58,1.42,1.42,0,0,1-.41.4,1.77,1.77,0,0,1-.58.24,3.19,3.19,0,0,1-.7.08A2.93,2.93,0,0,1,65.69,98.4Z"/><path class="cls-2" d="M71.6,98.64A2.13,2.13,0,0,1,70,98a2.21,2.21,0,0,1-.59-1.6,2.13,2.13,0,0,1,2.3-2.31,2.07,2.07,0,0,1,1.57.59,2.3,2.3,0,0,1,.57,1.65A2.27,2.27,0,0,1,73.24,98,2.21,2.21,0,0,1,71.6,98.64Zm.05-3.74a1.1,1.1,0,0,0-.91.4,1.68,1.68,0,0,0-.33,1.1,1.59,1.59,0,0,0,.33,1.07,1.15,1.15,0,0,0,.91.39,1.11,1.11,0,0,0,.89-.38,2.15,2.15,0,0,0,0-2.19A1.08,1.08,0,0,0,71.65,94.9Z"/><path class="cls-2" d="M78.61,98.54h-1v-.69h0a1.41,1.41,0,0,1-1.33.79c-1,0-1.53-.61-1.53-1.84V94.22h1V96.7c0,.77.3,1.16.9,1.16a.88.88,0,0,0,.71-.32,1.2,1.2,0,0,0,.28-.84V94.22h1Z"/><path class="cls-2" d="M82.39,95.15a.84.84,0,0,0-.51-.14.89.89,0,0,0-.73.39,1.81,1.81,0,0,0-.29,1.07v2.07h-1V94.22h1v.89h0a1.42,1.42,0,0,1,.44-.71,1,1,0,0,1,.66-.26.87.87,0,0,1,.41.08Z"/><path class="cls-2" d="M86.1,98.34a2.44,2.44,0,0,1-1.23.3,2.07,2.07,0,0,1-1.55-.6,2.1,2.1,0,0,1-.59-1.56,2.38,2.38,0,0,1,.63-1.72,2.27,2.27,0,0,1,1.7-.64,2.61,2.61,0,0,1,1,.2v.91a1.59,1.59,0,0,0-1-.33,1.36,1.36,0,0,0-1,.42,1.54,1.54,0,0,0-.39,1.1,1.43,1.43,0,0,0,.37,1,1.32,1.32,0,0,0,1,.39,1.59,1.59,0,0,0,1-.37Z"/><path class="cls-2" d="M90.72,96.64H87.78a1.24,1.24,0,0,0,.37.93,1.4,1.4,0,0,0,1,.32,2.18,2.18,0,0,0,1.27-.41v.79a3,3,0,0,1-1.56.37,1.94,1.94,0,0,1-1.5-.59,2.35,2.35,0,0,1-.54-1.66,2.32,2.32,0,0,1,.59-1.64,2,2,0,0,1,1.49-.63,1.7,1.7,0,0,1,1.37.57,2.37,2.37,0,0,1,.48,1.58ZM89.78,96a1.27,1.27,0,0,0-.25-.82.85.85,0,0,0-.68-.29.92.92,0,0,0-.71.31,1.32,1.32,0,0,0-.36.8Z"/><path class="cls-2" d="M95.14,96.34v2.2h-1V92.49H96a2.45,2.45,0,0,1,1.62.48,1.71,1.71,0,0,1,.57,1.37,1.87,1.87,0,0,1-.6,1.44,2.21,2.21,0,0,1-1.61.56Zm0-3v2.21h.65a1.42,1.42,0,0,0,1-.3,1.06,1.06,0,0,0,.34-.85c0-.71-.41-1.06-1.24-1.06Z"/><path class="cls-2" d="M100.06,98.54h-1v-6.4h1Z"/><path class="cls-2" d="M104.65,98.54h-1v-.68h0a1.41,1.41,0,0,1-1.31.78,1.37,1.37,0,0,1-1-.35,1.17,1.17,0,0,1-.37-.91c0-.82.47-1.29,1.41-1.43l1.29-.18c0-.62-.3-.92-.88-.92a2,2,0,0,0-1.39.53v-.86a3,3,0,0,1,1.57-.4,1.44,1.44,0,0,1,1.64,1.61Zm-.94-2.12-.91.12a1.55,1.55,0,0,0-.64.21.59.59,0,0,0-.21.52.58.58,0,0,0,.2.45.73.73,0,0,0,.52.18,1,1,0,0,0,.74-.32,1.09,1.09,0,0,0,.3-.79Z"/><path class="cls-2" d="M109.69,98.54h-1V96.1c0-.8-.28-1.21-.85-1.21a.91.91,0,0,0-.74.34,1.19,1.19,0,0,0-.29.84v2.47h-1V94.22h1v.72h0a1.54,1.54,0,0,1,1.4-.82,1.33,1.33,0,0,1,1.08.45,2.07,2.07,0,0,1,.37,1.33Z"/><path class="cls-2" d="M114.73,98.54h-1V96.1c0-.8-.28-1.21-.85-1.21a.91.91,0,0,0-.74.34,1.19,1.19,0,0,0-.29.84v2.47h-1V94.22h1v.72h0a1.54,1.54,0,0,1,1.41-.82,1.32,1.32,0,0,1,1.07.45,2.07,2.07,0,0,1,.37,1.33Z"/><path class="cls-2" d="M116.42,93.31a.59.59,0,0,1-.41-.15.51.51,0,0,1-.17-.4.5.5,0,0,1,.17-.4.56.56,0,0,1,.41-.16.6.6,0,0,1,.42.16.5.5,0,0,1,.17.4.5.5,0,0,1-.17.39A.6.6,0,0,1,116.42,93.31Zm.48,5.23h-1V94.22h1Z"/><path class="cls-2" d="M122,98.54h-1V96.1c0-.8-.29-1.21-.86-1.21a.9.9,0,0,0-.73.34,1.2,1.2,0,0,0-.3.84v2.47h-1V94.22h1v.72h0a1.53,1.53,0,0,1,1.4-.82,1.33,1.33,0,0,1,1.08.45A2.13,2.13,0,0,1,122,95.9Z"/><path class="cls-2" d="M127.15,98.19a2.1,2.1,0,0,1-2.39,2.38,3.54,3.54,0,0,1-1.47-.28v-.9a2.72,2.72,0,0,0,1.34.41,1.35,1.35,0,0,0,1.54-1.52v-.47h0a1.6,1.6,0,0,1-1.46.83,1.55,1.55,0,0,1-1.27-.58,2.28,2.28,0,0,1-.49-1.54,2.74,2.74,0,0,1,.52-1.75,1.71,1.71,0,0,1,1.43-.65,1.37,1.37,0,0,1,1.27.7h0v-.6h1Zm-1-1.63V96a1.09,1.09,0,0,0-.3-.78,1,1,0,0,0-.75-.32,1,1,0,0,0-.87.41,1.85,1.85,0,0,0-.32,1.15,1.57,1.57,0,0,0,.31,1,1,1,0,0,0,.79.38,1,1,0,0,0,.83-.37A1.36,1.36,0,0,0,126.18,96.56Z"/></svg>