<svg id="svg" version="1.1" xmlns="http://www.w3.org/2000/svg" xmlns:xlink="http://www.w3.org/1999/xlink" width="400" height="462.4277456647399" viewBox="0, 0, 400,462.4277456647399"><g id="svgg"><path id="path0" d="M294.153 20.989 C 293.428 22.024,293.318 125.071,294.039 127.140 L 294.478 128.400 343.420 128.400 C 392.742 128.400,394.383 128.356,394.408 127.036 C 394.413 126.796,394.425 102.858,394.435 73.840 C 394.453 19.330,394.483 20.436,393.000 20.403 C 369.429 19.878,294.621 20.321,294.153 20.989 M107.200 181.629 C 106.210 181.809,83.892 181.951,57.605 181.944 C 10.234 181.931,9.806 181.938,9.279 182.732 C 8.845 183.385,8.727 192.881,8.636 234.266 C 8.575 262.170,8.391 285.729,8.228 286.620 C 7.956 288.107,8.016 288.279,8.965 288.711 C 10.433 289.380,109.822 289.446,110.626 288.778 C 111.502 288.052,111.476 184.757,110.600 182.661 C 110.264 181.857,109.767 181.223,109.495 181.250 C 109.223 181.278,108.190 181.448,107.200 181.629 M152.501 181.525 C 150.210 181.746,150.308 179.392,150.352 233.156 C 150.386 273.931,150.294 283.455,149.847 285.498 L 149.300 287.996 150.597 288.798 C 152.081 289.715,248.824 290.089,252.060 289.190 C 253.887 288.683,254.039 288.274,253.573 285.134 C 253.351 283.643,253.214 262.107,253.240 232.825 L 253.283 183.051 252.275 182.316 C 251.358 181.648,158.835 180.915,152.501 181.525 M294.378 182.259 C 293.912 183.484,293.844 288.404,294.308 288.868 C 294.857 289.417,393.037 289.316,394.064 288.766 C 394.824 288.359,394.881 288.083,394.653 285.899 C 394.514 284.570,394.400 260.835,394.400 233.155 C 394.400 182.926,394.398 182.827,393.585 182.392 C 393.009 182.084,378.924 181.957,345.685 181.959 C 319.788 181.961,297.731 181.818,296.668 181.640 C 294.866 181.339,294.712 181.381,294.378 182.259 M150.912 342.808 C 149.802 343.255,149.349 344.931,149.970 346.295 C 150.325 347.073,150.434 359.635,150.411 396.975 C 150.386 436.627,150.482 446.759,150.890 447.314 C 151.369 447.967,154.381 448.009,201.236 448.017 C 249.353 448.024,252.243 447.969,252.900 447.029 C 253.065 446.793,253.222 424.280,253.250 397.000 C 253.278 369.720,253.323 346.413,253.351 345.206 C 253.399 343.078,253.364 343.005,252.200 342.754 C 250.327 342.349,151.921 342.402,150.912 342.808 M294.080 342.880 C 293.711 343.249,293.605 355.250,293.623 394.580 C 293.646 446.770,293.698 448.672,295.100 448.560 C 295.375 448.538,317.526 448.493,344.324 448.460 C 383.077 448.412,393.190 448.296,393.744 447.891 C 394.853 447.080,394.837 343.180,393.728 342.743 C 392.371 342.208,294.617 342.343,294.080 342.880 " stroke="none" fill="#1c1c48" fill-rule="evenodd"></path><path id="path1" d="M0.000 231.200 L 0.000 462.400 200.000 462.400 L 400.000 462.400 400.000 231.200 L 400.000 0.000 200.000 0.000 L 0.000 0.000 0.000 231.200 M395.380 19.202 C 396.194 20.016,396.968 123.201,396.193 127.522 C 395.627 130.675,400.595 130.400,344.181 130.400 L 293.962 130.400 293.030 129.394 C 291.576 127.825,291.600 128.766,291.601 73.850 C 291.601 16.878,291.485 19.755,293.826 18.606 C 295.696 17.688,394.446 18.268,395.380 19.202 M111.878 180.165 L 113.000 181.131 113.104 235.138 L 113.209 289.145 112.239 290.273 L 111.269 291.400 59.895 291.400 C 3.800 291.400,7.048 291.541,5.956 289.062 C 4.950 286.778,5.542 181.969,6.567 180.836 C 7.952 179.306,9.075 179.273,60.278 179.236 L 110.755 179.200 111.878 180.165 M254.691 180.509 L 255.800 181.618 256.000 234.709 C 256.225 294.516,256.427 290.296,253.300 291.203 C 252.244 291.509,236.669 291.603,200.711 291.519 L 149.622 291.400 148.790 290.568 L 147.958 289.736 147.959 235.628 C 147.960 176.811,147.842 179.919,150.090 179.481 C 150.591 179.383,174.081 179.325,202.291 179.351 L 253.582 179.400 254.691 180.509 M395.078 180.165 L 396.200 181.131 396.200 235.400 L 396.200 289.669 395.078 290.635 L 393.955 291.600 344.013 291.600 L 294.071 291.600 293.036 290.369 C 292.466 289.692,291.995 288.927,291.989 288.669 C 291.748 277.883,292.077 182.249,292.359 181.508 C 293.296 179.042,289.753 179.200,344.267 179.200 L 393.955 179.200 395.078 180.165 M254.797 341.938 L 255.800 342.686 255.901 394.868 L 256.003 447.051 254.901 449.225 C 254.292 450.428,253.353 451.621,252.800 451.894 C 251.369 452.601,152.137 452.627,150.587 451.921 C 147.866 450.682,148.035 454.332,147.984 395.591 C 147.932 335.888,147.584 341.585,151.304 341.211 C 158.099 340.528,253.809 341.200,254.797 341.938 M393.789 341.188 C 396.600 341.839,396.400 337.702,396.400 395.261 C 396.400 451.533,396.420 450.951,394.414 452.191 C 393.589 452.701,294.255 452.426,293.774 451.912 C 291.547 449.532,291.600 450.930,291.600 394.972 C 291.600 340.794,291.539 342.493,293.510 341.424 C 294.791 340.728,390.833 340.502,393.789 341.188 " stroke="none" fill="#fbfbfc" fill-rule="evenodd"></path><path id="path2" d="M293.813 20.376 C 292.975 21.995,292.883 126.350,293.718 128.000 L 294.224 129.000 343.012 129.113 C 395.382 129.235,394.243 129.265,394.814 127.763 C 395.708 125.411,395.305 21.127,394.398 20.220 C 393.581 19.403,393.373 19.400,344.002 19.295 L 294.425 19.191 293.813 20.376 M393.000 20.403 C 394.483 20.436,394.453 19.330,394.435 73.840 C 394.425 102.858,394.413 126.796,394.408 127.036 C 394.383 128.356,392.742 128.400,343.420 128.400 L 294.478 128.400 294.039 127.140 C 293.318 125.071,293.428 22.024,294.153 20.989 C 294.621 20.321,369.429 19.878,393.000 20.403 M9.140 181.082 C 8.510 181.347,7.818 182.025,7.604 182.589 C 7.165 183.744,6.998 288.150,7.434 288.856 C 8.387 290.397,8.498 290.400,60.360 290.400 L 110.346 290.400 111.173 289.238 C 112.979 286.702,112.342 180.826,110.520 180.795 C 92.005 180.478,10.023 180.711,9.140 181.082 M152.572 180.716 C 148.843 181.274,149.154 176.263,149.151 235.917 L 149.148 289.000 150.274 289.701 C 152.186 290.892,252.403 290.575,253.603 289.374 L 254.429 288.549 254.407 236.114 C 254.384 178.911,254.488 181.345,252.060 180.972 C 250.597 180.747,154.025 180.498,152.572 180.716 M293.866 181.161 C 293.029 182.170,293.004 288.129,293.840 289.405 L 294.492 290.400 343.546 290.395 C 395.819 290.389,394.183 290.438,394.916 288.849 C 395.732 287.080,395.210 182.239,394.381 181.409 C 393.486 180.514,294.606 180.270,293.866 181.161 M110.600 182.661 C 111.476 184.757,111.502 288.052,110.626 288.778 C 109.822 289.446,10.433 289.380,8.965 288.711 C 8.016 288.279,7.956 288.107,8.228 286.620 C 8.391 285.729,8.575 262.170,8.636 234.266 C 8.727 192.881,8.845 183.385,9.279 182.732 C 9.806 181.938,10.234 181.931,57.605 181.944 C 83.892 181.951,106.210 181.809,107.200 181.629 C 108.190 181.448,109.223 181.278,109.495 181.250 C 109.767 181.223,110.264 181.857,110.600 182.661 M252.275 182.316 L 253.283 183.051 253.240 232.825 C 253.214 262.107,253.351 283.643,253.573 285.134 C 254.039 288.274,253.887 288.683,252.060 289.190 C 248.824 290.089,152.081 289.715,150.597 288.798 L 149.300 287.996 149.847 285.498 C 150.294 283.455,150.386 273.931,150.352 233.156 C 150.308 179.392,150.210 181.746,152.501 181.525 C 158.835 180.915,251.358 181.648,252.275 182.316 M345.685 181.959 C 378.924 181.957,393.009 182.084,393.585 182.392 C 394.398 182.827,394.400 182.926,394.400 233.155 C 394.400 260.835,394.514 284.570,394.653 285.899 C 394.881 288.083,394.824 288.359,394.064 288.766 C 393.037 289.316,294.857 289.417,294.308 288.868 C 293.844 288.404,293.912 183.484,294.378 182.259 C 294.712 181.381,294.866 181.339,296.668 181.640 C 297.731 181.818,319.788 181.961,345.685 181.959 M150.067 342.506 L 149.133 343.000 149.167 395.192 L 149.201 447.383 150.129 448.311 L 151.056 449.238 201.028 449.228 C 228.513 449.222,251.323 449.213,251.718 449.209 C 252.113 449.204,252.882 448.754,253.427 448.210 L 254.417 447.219 254.391 396.800 C 254.376 369.070,254.480 346.194,254.622 345.965 C 255.166 345.084,254.398 342.927,253.375 342.461 C 251.860 341.771,151.373 341.814,150.067 342.506 M293.680 342.480 C 292.793 343.367,293.011 447.091,293.902 448.515 L 294.600 449.631 343.600 449.608 C 395.752 449.584,394.075 449.632,394.742 448.169 C 395.391 446.743,395.420 343.347,394.771 342.565 C 394.129 341.791,294.453 341.707,293.680 342.480 M252.200 342.754 C 253.364 343.005,253.399 343.078,253.351 345.206 C 253.323 346.413,253.278 369.720,253.250 397.000 C 253.222 424.280,253.065 446.793,252.900 447.029 C 252.243 447.969,249.353 448.024,201.236 448.017 C 154.381 448.009,151.369 447.967,150.890 447.314 C 150.482 446.759,150.386 436.627,150.411 396.975 C 150.434 359.635,150.325 347.073,149.970 346.295 C 149.349 344.931,149.802 343.255,150.912 342.808 C 151.921 342.402,250.327 342.349,252.200 342.754 M393.728 342.743 C 394.837 343.180,394.853 447.080,393.744 447.891 C 393.190 448.296,383.077 448.412,344.324 448.460 C 317.526 448.493,295.375 448.538,295.100 448.560 C 293.698 448.672,293.646 446.770,293.623 394.580 C 293.605 355.250,293.711 343.249,294.080 342.880 C 294.617 342.343,392.371 342.208,393.728 342.743 " stroke="none" fill="#6e7492" fill-rule="evenodd"></path><path id="path3" d="M293.410 20.380 C 292.871 21.423,292.811 27.679,292.897 74.280 L 292.994 127.000 293.197 74.000 C 293.358 31.856,293.505 20.816,293.914 20.100 C 294.197 19.605,294.336 19.200,294.224 19.200 C 294.112 19.200,293.746 19.731,293.410 20.380 M393.200 19.484 C 393.530 19.605,394.115 19.979,394.500 20.314 C 395.370 21.072,395.427 20.684,394.571 19.829 C 394.226 19.483,393.641 19.214,393.271 19.232 C 392.723 19.257,392.710 19.304,393.200 19.484 M395.394 74.800 C 395.394 103.510,395.442 115.255,395.500 100.900 C 395.558 86.545,395.558 63.055,395.500 48.700 C 395.442 34.345,395.394 46.090,395.394 74.800 M293.206 127.638 C 293.195 128.853,294.550 129.604,296.631 129.535 L 298.600 129.470 296.409 129.235 C 294.596 129.040,294.132 128.828,293.715 128.000 C 293.402 127.377,293.210 127.241,293.206 127.638 M390.705 129.483 C 391.202 129.579,391.922 129.575,392.305 129.475 C 392.687 129.375,392.280 129.296,391.400 129.301 C 390.520 129.305,390.207 129.387,390.705 129.483 M36.531 180.700 C 49.693 180.758,71.113 180.758,84.131 180.700 C 97.149 180.641,86.380 180.594,60.200 180.594 C 34.020 180.594,23.369 180.641,36.531 180.700 M149.782 181.382 C 149.242 181.922,148.807 182.597,148.816 182.882 C 148.825 183.167,149.099 182.907,149.426 182.305 C 149.753 181.703,150.421 181.125,150.910 181.021 C 151.400 180.916,152.160 180.755,152.600 180.662 C 153.065 180.564,152.848 180.473,152.082 180.446 C 151.173 180.414,150.459 180.705,149.782 181.382 M177.900 180.700 C 190.715 180.759,211.685 180.759,224.500 180.700 C 237.315 180.641,226.830 180.593,201.200 180.593 C 175.570 180.593,165.085 180.641,177.900 180.700 M320.069 180.700 C 332.977 180.758,354.217 180.758,367.269 180.700 C 380.321 180.641,369.760 180.594,343.800 180.594 C 317.840 180.593,307.161 180.641,320.069 180.700 M252.866 181.069 C 253.840 181.327,254.099 182.193,254.400 186.200 L 254.671 189.800 254.735 186.687 C 254.809 183.132,254.076 180.772,252.920 180.846 C 252.297 180.887,252.290 180.917,252.866 181.069 M148.994 236.200 C 148.994 262.380,149.041 273.031,149.100 259.869 C 149.158 246.707,149.158 225.287,149.100 212.269 C 149.041 199.251,148.994 210.020,148.994 236.200 M254.501 285.000 C 254.505 285.880,254.587 286.193,254.683 285.695 C 254.779 285.198,254.775 284.478,254.675 284.095 C 254.575 283.713,254.496 284.120,254.501 285.000 M292.914 286.600 C 292.917 287.700,292.995 288.103,293.087 287.495 C 293.179 286.886,293.177 285.986,293.082 285.495 C 292.987 285.003,292.911 285.500,292.914 286.600 M148.501 287.000 C 148.505 287.880,148.587 288.193,148.683 287.695 C 148.779 287.198,148.775 286.478,148.675 286.095 C 148.575 285.713,148.496 286.120,148.501 287.000 M253.903 289.011 C 253.519 289.524,252.799 290.022,252.303 290.117 C 251.473 290.277,251.467 290.295,252.230 290.346 C 252.996 290.396,255.150 288.610,254.768 288.241 C 254.676 288.151,254.286 288.498,253.903 289.011 M149.544 289.576 C 150.064 290.029,150.679 290.400,150.911 290.400 C 151.403 290.400,151.379 290.380,149.800 289.455 L 148.600 288.753 149.544 289.576 M154.100 290.687 C 154.705 290.778,155.695 290.778,156.300 290.687 C 156.905 290.595,156.410 290.520,155.200 290.520 C 153.990 290.520,153.495 290.595,154.100 290.687 M247.500 290.682 C 247.995 290.778,248.805 290.778,249.300 290.682 C 249.795 290.587,249.390 290.509,248.400 290.509 C 247.410 290.509,247.005 290.587,247.500 290.682 M318.869 341.900 C 332.437 341.958,354.757 341.958,368.469 341.900 C 382.181 341.842,371.080 341.794,343.800 341.794 C 316.520 341.794,305.301 341.842,318.869 341.900 M293.247 342.543 C 292.917 342.940,292.825 357.028,292.900 395.243 L 293.003 447.400 293.102 395.180 C 293.177 355.208,293.313 342.847,293.680 342.480 C 293.944 342.216,294.056 342.000,293.929 342.000 C 293.802 342.000,293.495 342.244,293.247 342.543 M395.394 396.800 C 395.394 424.630,395.442 436.015,395.500 422.100 C 395.558 408.185,395.558 385.415,395.500 371.500 C 395.442 357.585,395.394 368.970,395.394 396.800 M148.994 396.400 C 148.994 422.690,149.041 433.445,149.100 420.300 C 149.158 407.155,149.158 385.645,149.100 372.500 C 149.041 359.355,148.994 370.110,148.994 396.400 M293.202 447.738 C 293.201 447.924,293.482 448.554,293.827 449.138 L 294.454 450.200 343.437 450.105 C 370.378 450.053,392.870 449.897,393.421 449.759 C 394.372 449.520,395.486 448.153,395.069 447.736 C 394.961 447.628,394.761 447.894,394.623 448.327 C 394.220 449.597,394.695 449.585,343.600 449.608 L 294.600 449.631 293.902 448.515 C 293.518 447.902,293.203 447.552,293.202 447.738 M179.931 449.500 C 192.323 449.559,212.483 449.559,224.731 449.500 C 236.979 449.441,226.840 449.393,202.200 449.393 C 177.560 449.393,167.539 449.441,179.931 449.500 " stroke="none" fill="#827c92" fill-rule="evenodd"></path><path id="path4" d="M293.826 18.606 C 291.485 19.755,291.601 16.878,291.601 73.850 C 291.600 128.766,291.576 127.825,293.030 129.394 L 293.962 130.400 344.181 130.400 C 400.595 130.400,395.627 130.675,396.193 127.522 C 396.968 123.201,396.194 20.016,395.380 19.202 C 394.446 18.268,295.696 17.688,293.826 18.606 M393.631 19.357 C 395.660 19.797,395.600 18.144,395.600 74.032 C 395.600 130.028,395.628 129.193,393.720 129.204 C 347.785 129.482,294.191 129.162,293.636 128.607 C 292.678 127.650,292.452 22.233,293.404 20.393 L 294.019 19.203 342.909 19.102 C 369.799 19.046,391.980 19.030,392.200 19.067 C 392.420 19.103,393.064 19.234,393.631 19.357 M8.567 179.630 C 5.547 180.507,5.824 175.358,5.600 234.742 C 5.383 292.237,5.296 289.674,7.517 290.862 C 8.343 291.305,17.648 291.400,59.895 291.400 L 111.269 291.400 112.239 290.273 L 113.209 289.145 113.104 235.138 L 113.000 181.131 111.878 180.165 L 110.755 179.200 60.278 179.236 C 31.894 179.256,9.261 179.429,8.567 179.630 M150.090 179.481 C 147.842 179.919,147.960 176.811,147.959 235.628 L 147.958 289.736 148.790 290.568 L 149.622 291.400 200.711 291.519 C 236.669 291.603,252.244 291.509,253.300 291.203 C 256.427 290.296,256.225 294.516,256.000 234.709 L 255.800 181.618 254.691 180.509 L 253.582 179.400 202.291 179.351 C 174.081 179.325,150.591 179.383,150.090 179.481 M293.664 179.840 C 293.161 180.193,292.574 180.943,292.359 181.508 C 292.077 182.249,291.748 277.883,291.989 288.669 C 291.995 288.927,292.466 289.692,293.036 290.369 L 294.071 291.600 344.013 291.600 L 393.955 291.600 395.078 290.635 L 396.200 289.669 396.200 235.400 L 396.200 181.131 395.078 180.165 L 393.955 179.200 344.267 179.200 C 299.354 179.200,294.490 179.262,293.664 179.840 M111.038 181.242 C 111.869 182.160,112.663 286.731,111.853 288.600 C 110.932 290.725,114.104 290.616,59.413 290.400 L 8.822 290.200 7.985 289.363 L 7.148 288.526 7.187 235.854 C 7.227 179.987,7.170 181.575,9.158 180.846 C 9.798 180.611,29.484 180.451,60.238 180.432 L 110.276 180.400 111.038 181.242 M252.364 180.653 C 253.060 180.792,253.815 181.254,254.042 181.679 C 254.904 183.289,254.565 288.813,253.695 289.682 C 252.812 290.566,151.654 290.885,150.019 290.010 C 148.604 289.253,148.597 288.964,148.800 235.065 L 149.000 181.929 149.944 181.165 C 150.898 180.392,248.621 179.904,252.364 180.653 M393.181 180.656 C 395.218 181.064,395.173 179.855,395.213 235.889 L 395.251 288.991 394.381 289.696 C 392.980 290.831,294.871 290.784,293.843 289.648 C 292.848 288.548,292.809 182.856,293.803 181.339 L 294.418 180.400 343.159 180.400 C 369.967 180.400,392.477 180.515,393.181 180.656 M151.304 341.211 C 147.584 341.585,147.932 335.888,147.984 395.591 C 148.035 454.332,147.866 450.682,150.587 451.921 C 152.137 452.627,251.369 452.601,252.800 451.894 C 253.353 451.621,254.292 450.428,254.901 449.225 L 256.003 447.051 255.901 394.868 L 255.800 342.686 254.797 341.938 C 253.809 341.200,158.099 340.528,151.304 341.211 M293.510 341.424 C 291.539 342.493,291.600 340.794,291.600 394.972 C 291.600 450.930,291.547 449.532,293.774 451.912 C 294.255 452.426,393.589 452.701,394.414 452.191 C 396.420 450.951,396.400 451.533,396.400 395.261 C 396.400 337.702,396.600 341.839,393.789 341.188 C 390.833 340.502,294.791 340.728,293.510 341.424 M253.687 342.491 C 254.637 343.123,254.841 446.504,253.896 448.019 C 252.919 449.583,252.345 449.600,201.520 449.600 C 148.134 449.600,150.315 449.683,149.208 447.615 C 148.927 447.089,148.796 430.070,148.804 394.864 L 148.816 342.890 149.908 342.461 C 151.626 341.787,150.814 341.795,203.161 341.891 C 242.622 341.964,253.080 342.088,253.687 342.491 M394.939 342.349 C 395.865 343.118,395.967 445.948,395.043 448.159 C 394.235 450.093,396.652 450.002,343.397 450.105 L 294.375 450.200 293.587 448.574 C 292.817 446.982,292.800 445.849,292.800 394.896 L 292.800 342.845 293.698 342.217 C 294.966 341.328,393.864 341.457,394.939 342.349 " stroke="none" fill="#8487a4" fill-rule="evenodd"></path></g></svg>